<svg width="211" height="45" viewBox="0 0 211 45" fill="none" xmlns="http://www.w3.org/2000/svg">
<mask id="mask0_160:571" style="mask-type:alpha" maskUnits="userSpaceOnUse" x="0" y="0" width="211" height="45">
<rect width="211" height="45" fill="#C4C4C4"/>
</mask>
<g mask="url(#mask0_160:571)">
<path d="M12.1853 26.2499L3.6001 44.9995H7.18201L14.1513 29.6914L12.1853 26.2499Z" fill="#F6F6F6"/>
<path d="M25.9628 0.390205H24.0265L21.2301 6.49719L18.4202 12.634L20.3511 16.074L22.9623 10.3385L39.903 44.9995H47.874L25.9628 0.390205Z" fill="#F6F6F6"/>
<path d="M37.7677 18.8181L46.3843 0.000429153H42.8021L35.9727 15.0015L37.7677 18.8181Z" fill="#F6F6F6"/>
<path d="M29.5192 29.1753L27.022 34.6609L10.081 7.62939e-06H2.11011L24.0213 44.6093H25.9578L28.754 38.5023L31.3668 32.7959L29.5192 29.1753Z" fill="#F6F6F6"/>
<path d="M145.043 34.5479L137.823 16.2728C136.951 13.9925 135.971 12.2932 134.882 11.1737V11.1103H141.678V11.1737C141.329 11.6804 141.15 12.388 141.139 13.2955C141.128 14.2036 141.329 15.249 141.743 16.4312L146.905 29.7019L151.512 17.983C152.645 15.0272 152.666 12.7573 151.577 11.1737V11.1103H155.923V11.1737C154.659 12.5252 153.625 14.32 152.819 16.5578L145.697 34.5479H145.043Z" fill="#F6F6F6"/>
<path d="M168.869 34.4845C169.413 33.5134 169.767 32.6583 169.93 31.9189C170.094 31.1801 170.175 30.1454 170.175 28.8153V17.0964C170.175 15.766 170.094 14.7319 169.93 13.9925C169.767 13.2537 169.413 12.3986 168.869 11.4272V11.3636H175.24V11.4272C174.695 12.3986 174.341 13.2537 174.178 13.9925C174.015 14.7319 173.933 15.766 173.933 17.0964V28.8153C173.933 30.1454 174.015 31.1801 174.178 31.9189C174.341 32.6583 174.695 33.5134 175.24 34.4845V34.5479H168.869V34.4845Z" fill="#F6F6F6"/>
<path d="M205.34 17.0646L205.046 17.1597C203.957 14.9218 202.868 13.3431 201.779 12.4247C200.69 11.5062 199.525 11.047 198.283 11.047C197.173 11.047 196.301 11.369 195.67 12.013C195.037 12.6573 194.722 13.5173 194.722 14.5941C194.722 15.1642 194.837 15.7027 195.065 16.2095C195.294 16.7163 195.55 17.1388 195.833 17.4763C196.116 17.8143 196.557 18.1733 197.156 18.5531C197.755 18.9332 198.245 19.2183 198.626 19.4085C199.007 19.5984 199.59 19.8732 200.374 20.2318C201.202 20.6332 201.855 20.9555 202.335 21.1978C202.813 21.441 203.385 21.7997 204.05 22.2746C204.714 22.7499 205.226 23.22 205.585 23.6841C205.945 24.1487 206.26 24.7403 206.533 25.4579C206.805 26.1758 206.941 26.9573 206.941 27.8015C206.941 30.04 206.135 31.7241 204.524 32.8534C202.912 33.9832 200.864 34.5479 198.381 34.5479C196.181 34.5479 193.938 34.1362 191.651 33.3126L190.998 27.4531L191.259 27.358C192.501 29.6177 193.775 31.2752 195.081 32.3306C196.388 33.3868 197.793 33.9145 199.296 33.9145C200.712 33.9145 201.801 33.4977 202.564 32.6635C203.326 31.8293 203.707 30.8 203.707 29.5753C203.707 28.2028 203.266 27.0839 202.384 26.2179C201.501 25.3525 200.254 24.5395 198.643 23.7792C197.967 23.4623 197.477 23.2303 197.173 23.0825C196.867 22.935 196.421 22.692 195.833 22.354C195.245 22.0165 194.804 21.7315 194.51 21.4989C194.216 21.2665 193.861 20.9555 193.448 20.5644C193.034 20.174 192.734 19.7938 192.549 19.4243C192.364 19.055 192.195 18.6116 192.043 18.0939C191.89 17.5768 191.814 17.0328 191.814 16.463C191.814 14.4151 192.533 12.8948 193.971 11.9021C195.408 10.9098 197.205 10.4134 199.362 10.4134C201.169 10.4134 202.944 10.7199 204.687 11.3321L205.34 17.0646Z" fill="#F6F6F6"/>
<path d="M82.62 11.1103L89.8405 29.3854C90.7119 31.6657 91.6922 33.365 92.7808 34.4845V34.5479H85.9853V34.4845C86.334 33.9778 86.5136 33.2702 86.5243 32.3627C86.5355 31.4546 86.334 30.4092 85.92 29.227L80.7577 15.9563L76.151 27.6752C75.0186 30.6309 74.9968 32.9009 76.0857 34.4845V34.5479H71.7402V34.4845C73.0038 33.133 74.0384 31.3382 74.8443 29.1004L81.9666 11.1103H82.62Z" fill="#F6F6F6"/>
<path d="M123.177 32.9009C122.687 32.3733 122.104 31.4549 121.429 30.1454L117.541 22.7656C119.131 22.2804 120.318 21.5255 121.103 20.5011C121.887 19.4773 122.279 18.2793 122.279 16.9065C122.279 13.2116 119.523 11.3639 114.013 11.3639H105.681V11.4272C106.204 12.3986 106.552 13.264 106.727 14.0243C106.901 14.7843 106.988 15.8088 106.988 17.0964V28.8153C106.988 30.1033 106.901 31.1274 106.727 31.8874C106.552 32.6477 106.204 33.5137 105.681 34.4845V34.5479H112.052V34.4845C111.508 33.5137 111.154 32.6583 110.991 31.9192C110.827 31.1804 110.746 30.1454 110.746 28.8153V24.0033V23.3675V22.7341V22.191V12.0288C111.159 12.0082 111.682 11.9973 112.313 11.9973H113.294C115.189 11.9973 116.523 12.4198 117.296 13.264C118.069 14.1088 118.456 15.3123 118.456 16.8747C118.456 20.7813 116.735 22.7341 113.294 22.7341H113.265L113.922 24.0033L119.469 34.5479H125.219V34.3261C124.348 33.9042 123.667 33.4289 123.177 32.9009Z" fill="#F6F6F6"/>
</g>
</svg>
